<mxfile host="65bd71144e">
    <diagram id="1DmJG_v_HB7CN_tW5fvp" name="Page-1">
        <mxGraphModel dx="3017" dy="1427" grid="1" gridSize="10" guides="1" tooltips="1" connect="1" arrows="1" fold="1" page="1" pageScale="1" pageWidth="827" pageHeight="1169" background="#ffffff" math="0" shadow="0">
            <root>
                <mxCell id="0"/>
                <mxCell id="1" parent="0"/>
                <mxCell id="79" value="" style="rounded=0;whiteSpace=wrap;html=1;" vertex="1" parent="1">
                    <mxGeometry x="-827" width="1437" height="730" as="geometry"/>
                </mxCell>
                <mxCell id="22" value="singleton" style="edgeStyle=none;html=1;fontSize=10;fillColor=#f5f5f5;strokeColor=#666666;" parent="1" source="20" target="21" edge="1">
                    <mxGeometry relative="1" as="geometry">
                        <mxPoint as="offset"/>
                    </mxGeometry>
                </mxCell>
                <mxCell id="20" value="Object" style="html=1;fontSize=10;fillColor=#dae8fc;strokeColor=#6c8ebf;" parent="1" vertex="1">
                    <mxGeometry x="-70" y="140" width="110" height="50" as="geometry"/>
                </mxCell>
                <mxCell id="24" value="" style="edgeStyle=none;html=1;fontSize=10;fillColor=#f5f5f5;strokeColor=#666666;" parent="1" source="21" target="23" edge="1">
                    <mxGeometry relative="1" as="geometry"/>
                </mxCell>
                <mxCell id="21" value="&lt;span style=&quot;font-weight: normal&quot;&gt;#&lt;span&gt;Object&lt;/span&gt;&lt;/span&gt;" style="html=1;fontSize=10;fontStyle=1;fillColor=#f5f5f5;fontColor=#333333;strokeColor=#666666;" parent="1" vertex="1">
                    <mxGeometry x="120" y="140" width="110" height="50" as="geometry"/>
                </mxCell>
                <mxCell id="23" value="Class" style="html=1;fontSize=10;fillColor=#f5f5f5;fontColor=#333333;strokeColor=#666666;" parent="1" vertex="1">
                    <mxGeometry x="120" y="60" width="110" height="50" as="geometry"/>
                </mxCell>
                <mxCell id="29" value="klass" style="edgeStyle=none;html=1;fontSize=10;" parent="1" edge="1">
                    <mxGeometry relative="1" as="geometry">
                        <mxPoint x="560" y="245" as="sourcePoint"/>
                    </mxGeometry>
                </mxCell>
                <mxCell id="33" value="singleton" style="edgeStyle=none;html=1;fontSize=10;fillColor=#f5f5f5;strokeColor=#666666;" parent="1" source="30" target="31" edge="1">
                    <mxGeometry relative="1" as="geometry"/>
                </mxCell>
                <mxCell id="68" value="super" style="edgeStyle=none;html=1;entryX=0.5;entryY=1;entryDx=0;entryDy=0;fillColor=#dae8fc;strokeColor=#6c8ebf;" parent="1" source="30" target="20" edge="1">
                    <mxGeometry relative="1" as="geometry"/>
                </mxCell>
                <mxCell id="30" value="Car" style="html=1;fontSize=10;fillColor=#dae8fc;strokeColor=#6c8ebf;" parent="1" vertex="1">
                    <mxGeometry x="-70" y="260" width="110" height="50" as="geometry"/>
                </mxCell>
                <mxCell id="73" value="super" style="edgeStyle=none;html=1;entryX=0.5;entryY=1;entryDx=0;entryDy=0;fillColor=#f5f5f5;strokeColor=#666666;" parent="1" source="31" target="21" edge="1">
                    <mxGeometry relative="1" as="geometry"/>
                </mxCell>
                <mxCell id="31" value="&lt;span style=&quot;font-weight: normal&quot;&gt;#Car&lt;/span&gt;" style="html=1;fontSize=10;fontStyle=1;fillColor=#f5f5f5;fontColor=#333333;strokeColor=#666666;" parent="1" vertex="1">
                    <mxGeometry x="120" y="260" width="110" height="50" as="geometry"/>
                </mxCell>
                <mxCell id="40" value="singleton" style="edgeStyle=none;html=1;fontSize=10;fillColor=#f5f5f5;strokeColor=#666666;" parent="1" source="37" target="38" edge="1">
                    <mxGeometry relative="1" as="geometry"/>
                </mxCell>
                <mxCell id="37" value="car" style="html=1;fontSize=10;fillColor=#dae8fc;strokeColor=#6c8ebf;" parent="1" vertex="1">
                    <mxGeometry x="-260" y="528" width="110" height="50" as="geometry"/>
                </mxCell>
                <mxCell id="74" value="" style="edgeStyle=none;html=1;fillColor=#dae8fc;strokeColor=#6c8ebf;" parent="1" source="38" target="58" edge="1">
                    <mxGeometry relative="1" as="geometry"/>
                </mxCell>
                <mxCell id="38" value="#car" style="html=1;fontSize=10;fillColor=#dae8fc;strokeColor=#6c8ebf;" parent="1" vertex="1">
                    <mxGeometry x="-70" y="528" width="110" height="50" as="geometry"/>
                </mxCell>
                <mxCell id="41" value="&lt;div style=&quot;font-family: &amp;#34;menlo&amp;#34; , &amp;#34;monaco&amp;#34; , &amp;#34;courier new&amp;#34; , monospace ; font-weight: bold ; font-size: 14px ; line-height: 21px&quot;&gt;&lt;div style=&quot;font-family: &amp;#34;menlo&amp;#34; , &amp;#34;monaco&amp;#34; , &amp;#34;courier new&amp;#34; , monospace ; line-height: 21px&quot;&gt;&lt;div style=&quot;color: rgb(212 , 212 , 212)&quot;&gt;&lt;div&gt;&lt;span style=&quot;color: rgb(197 , 134 , 192)&quot;&gt;module&lt;/span&gt;&amp;nbsp;&lt;span style=&quot;color: rgb(78 , 201 , 176)&quot;&gt;Movable&lt;/span&gt;&lt;/div&gt;&lt;div&gt;&lt;span style=&quot;color: rgb(197 , 134 , 192)&quot;&gt;&amp;nbsp; def&lt;/span&gt;&amp;nbsp;&lt;span style=&quot;color: rgb(220 , 220 , 170)&quot;&gt;forward&lt;/span&gt;&amp;nbsp;=&amp;nbsp;&lt;span style=&quot;color: rgb(156 , 220 , 254)&quot;&gt;puts&lt;/span&gt;(&lt;span style=&quot;color: rgb(206 , 145 , 120)&quot;&gt;&quot;move forward!&quot;&lt;/span&gt;)&lt;/div&gt;&lt;div&gt;&lt;span style=&quot;color: rgb(197 , 134 , 192)&quot;&gt;&amp;nbsp; def&lt;/span&gt;&amp;nbsp;&lt;span style=&quot;color: rgb(220 , 220 , 170)&quot;&gt;backward&lt;/span&gt;&amp;nbsp;=&amp;nbsp;&lt;span style=&quot;color: rgb(156 , 220 , 254)&quot;&gt;puts&lt;/span&gt;(&lt;span style=&quot;color: rgb(206 , 145 , 120)&quot;&gt;&quot;move backward!&quot;&lt;/span&gt;)&lt;/div&gt;&lt;div&gt;&lt;span style=&quot;color: rgb(197 , 134 , 192)&quot;&gt;&amp;nbsp; def&lt;/span&gt;&amp;nbsp;&lt;span style=&quot;color: rgb(220 , 220 , 170)&quot;&gt;left&lt;/span&gt;&amp;nbsp;=&amp;nbsp;&lt;span style=&quot;color: rgb(156 , 220 , 254)&quot;&gt;puts&lt;/span&gt;(&lt;span style=&quot;color: rgb(206 , 145 , 120)&quot;&gt;&quot;move left!&quot;&lt;/span&gt;)&lt;/div&gt;&lt;div&gt;&lt;span style=&quot;color: rgb(197 , 134 , 192)&quot;&gt;&amp;nbsp; def&lt;/span&gt;&amp;nbsp;&lt;span style=&quot;color: rgb(220 , 220 , 170)&quot;&gt;right&lt;/span&gt;&amp;nbsp;=&amp;nbsp;&lt;span style=&quot;color: rgb(156 , 220 , 254)&quot;&gt;puts&lt;/span&gt;(&lt;span style=&quot;color: rgb(206 , 145 , 120)&quot;&gt;&quot;move right!&quot;&lt;/span&gt;)&lt;/div&gt;&lt;div&gt;&lt;span style=&quot;color: rgb(197 , 134 , 192)&quot;&gt;&amp;nbsp; def&lt;/span&gt;&amp;nbsp;&lt;span style=&quot;color: rgb(220 , 220 , 170)&quot;&gt;drive&lt;/span&gt;&amp;nbsp;=&amp;nbsp;&lt;span style=&quot;color: rgb(156 , 220 , 254)&quot;&gt;puts&lt;/span&gt;(&lt;span style=&quot;color: rgb(206 , 145 , 120)&quot;&gt;&quot;moving!&quot;&lt;/span&gt;)&lt;br&gt;&lt;/div&gt;&lt;div&gt;&lt;span style=&quot;color: rgb(197 , 134 , 192)&quot;&gt;end&lt;/span&gt;&lt;/div&gt;&lt;br&gt;&lt;div&gt;&lt;span style=&quot;color: rgb(197 , 134 , 192)&quot;&gt;class&lt;/span&gt;&amp;nbsp;&lt;span style=&quot;color: rgb(78 , 201 , 176)&quot;&gt;Car&lt;/span&gt;&lt;/div&gt;&lt;div&gt;&lt;span style=&quot;color: rgb(86 , 156 , 214)&quot;&gt;&amp;nbsp; prepend&lt;/span&gt;&amp;nbsp;&lt;span style=&quot;color: rgb(79 , 193 , 255)&quot;&gt;Movable&lt;/span&gt;&lt;/div&gt;&lt;div&gt;&lt;span style=&quot;color: rgb(197 , 134 , 192)&quot;&gt;&amp;nbsp; def&lt;/span&gt;&amp;nbsp;&lt;span style=&quot;color: rgb(220 , 220 , 170)&quot;&gt;initialize&lt;/span&gt;(&lt;span style=&quot;color: rgb(156 , 220 , 254)&quot;&gt;kms&lt;/span&gt;)&lt;/div&gt;&lt;div&gt;&lt;span style=&quot;color: rgb(156 , 220 , 254)&quot;&gt;&amp;nbsp; &amp;nbsp; @kms&lt;/span&gt;&amp;nbsp;=&amp;nbsp;&lt;span style=&quot;color: rgb(156 , 220 , 254)&quot;&gt;kms&lt;/span&gt;&lt;/div&gt;&lt;div&gt;&lt;span style=&quot;color: rgb(197 , 134 , 192)&quot;&gt;&amp;nbsp; end&lt;/span&gt;&lt;/div&gt;&lt;br&gt;&lt;div&gt;&lt;span style=&quot;color: rgb(197 , 134 , 192)&quot;&gt;&amp;nbsp; def&lt;/span&gt;&amp;nbsp;&lt;span style=&quot;color: rgb(220 , 220 , 170)&quot;&gt;drive&lt;/span&gt;&lt;/div&gt;&lt;div&gt;&lt;span style=&quot;color: rgb(220 , 220 , 170)&quot;&gt;&amp;nbsp; &amp;nbsp; puts&lt;/span&gt;&amp;nbsp;&lt;span style=&quot;color: rgb(206 , 145 , 120)&quot;&gt;&quot;let's go!&quot;&lt;/span&gt;&lt;/div&gt;&lt;div&gt;&lt;span style=&quot;color: rgb(197 , 134 , 192)&quot;&gt;&amp;nbsp; end&lt;/span&gt;&lt;/div&gt;&lt;div&gt;&lt;span style=&quot;color: rgb(197 , 134 , 192)&quot;&gt;end&lt;/span&gt;&lt;/div&gt;&lt;br&gt;&lt;div&gt;&lt;span style=&quot;color: rgb(156 , 220 , 254)&quot;&gt;car&lt;/span&gt;&amp;nbsp;=&amp;nbsp;&lt;span style=&quot;color: rgb(78 , 201 , 176)&quot;&gt;Car&lt;/span&gt;.&lt;span style=&quot;color: rgb(86 , 156 , 214)&quot;&gt;new&lt;/span&gt;(&lt;span style=&quot;color: rgb(181 , 206 , 168)&quot;&gt;20_000&lt;/span&gt;)&lt;/div&gt;&lt;div&gt;&lt;span style=&quot;color: rgb(156 , 220 , 254)&quot;&gt;car&lt;/span&gt;.&lt;span style=&quot;color: rgb(220 , 220 , 170)&quot;&gt;drive&lt;/span&gt;&lt;/div&gt;&lt;div&gt;&lt;span style=&quot;color: rgb(106 , 153 , 85)&quot;&gt;# moving!&lt;/span&gt;&lt;br&gt;&lt;/div&gt;&lt;/div&gt;&lt;/div&gt;&lt;/div&gt;" style="text;html=1;align=left;verticalAlign=middle;resizable=0;points=[];autosize=1;strokeColor=none;fillColor=#1E1E1E;spacing=2;labelBackgroundColor=#1e1e1e;" parent="1" vertex="1">
                    <mxGeometry x="-780" y="40" width="350" height="470" as="geometry"/>
                </mxCell>
                <mxCell id="46" value="&lt;font color=&quot;#9cdcfe&quot;&gt;@kms&lt;/font&gt;" style="html=1;fontSize=10;fillColor=#1E1E1E;fontStyle=1" parent="1" vertex="1">
                    <mxGeometry x="-260" y="578" width="110" height="40" as="geometry"/>
                </mxCell>
                <mxCell id="50" value="&lt;span style=&quot;color: rgb(250 , 176 , 2)&quot;&gt;:forward,&lt;/span&gt;&lt;br style=&quot;color: rgb(250 , 176 , 2)&quot;&gt;&lt;span style=&quot;color: rgb(250 , 176 , 2)&quot;&gt;:backward,&lt;/span&gt;&lt;br style=&quot;color: rgb(250 , 176 , 2)&quot;&gt;&lt;span style=&quot;color: rgb(250 , 176 , 2)&quot;&gt;:left, :right, :drive&lt;/span&gt;" style="html=1;fontSize=10;fillColor=#1E1E1E;fontStyle=1" parent="1" vertex="1">
                    <mxGeometry x="-70" y="578" width="110" height="52" as="geometry"/>
                </mxCell>
                <mxCell id="54" value="&lt;font color=&quot;#569cd6&quot;&gt;:drive&lt;/font&gt;" style="html=1;fontSize=10;fillColor=#1E1E1E;fontStyle=1" parent="1" vertex="1">
                    <mxGeometry x="-70" y="310" width="110" height="40" as="geometry"/>
                </mxCell>
                <mxCell id="76" value="" style="edgeStyle=none;html=1;fillColor=#dae8fc;strokeColor=#6c8ebf;" parent="1" source="56" target="54" edge="1">
                    <mxGeometry relative="1" as="geometry"/>
                </mxCell>
                <mxCell id="56" value="Movable" style="whiteSpace=wrap;html=1;fillColor=#e1d5e7;strokeColor=#9673a6;" parent="1" vertex="1">
                    <mxGeometry x="-70" y="392" width="110" height="50" as="geometry"/>
                </mxCell>
                <mxCell id="58" value="&lt;font color=&quot;#fab002&quot;&gt;:forward, &lt;br&gt;:backward, &lt;br&gt;:left, :right, :drive&lt;/font&gt;" style="html=1;fontSize=10;fillColor=#1E1E1E;fontStyle=1" parent="1" vertex="1">
                    <mxGeometry x="-70" y="442" width="110" height="50" as="geometry"/>
                </mxCell>
                <mxCell id="64" value="&lt;p style=&quot;line-height: 1&quot;&gt;&lt;/p&gt;&lt;h1 style=&quot;font-size: 12px&quot;&gt;&lt;u style=&quot;color: rgb(91 , 165 , 227) ; font-weight: normal&quot;&gt;Car&lt;/u&gt;&lt;span style=&quot;font-weight: normal ; font-size: 12px&quot;&gt;.ancestors&lt;/span&gt;&lt;/h1&gt;&lt;h1 style=&quot;font-size: 12px&quot;&gt;&lt;span style=&quot;font-size: 12px ; font-weight: normal&quot;&gt;=&amp;gt; [&lt;/span&gt;&lt;u style=&quot;font-weight: normal&quot;&gt;&lt;font color=&quot;#c586c0&quot;&gt;Movable&lt;/font&gt;&lt;/u&gt;,&amp;nbsp;&lt;font color=&quot;#5ba5e3&quot; style=&quot;font-weight: normal&quot;&gt;&lt;u&gt;Car&lt;/u&gt;&lt;/font&gt;&lt;span style=&quot;font-weight: normal&quot;&gt;,&lt;/span&gt;&lt;font color=&quot;#5ba5e3&quot; style=&quot;font-weight: normal&quot;&gt;&amp;nbsp;&lt;u&gt;Object&lt;/u&gt;&lt;/font&gt;&lt;span style=&quot;font-weight: normal&quot;&gt;,&lt;/span&gt;&lt;font color=&quot;#5ba5e3&quot; style=&quot;font-weight: normal&quot;&gt;&amp;nbsp;&lt;u&gt;PP::ObjectMixin&lt;/u&gt;&lt;/font&gt;&lt;span style=&quot;font-weight: normal&quot;&gt;,&amp;nbsp;&lt;/span&gt;&lt;font color=&quot;#5ba5e3&quot; style=&quot;font-weight: normal&quot;&gt;&lt;u&gt;Kernel&lt;/u&gt;&lt;/font&gt;&lt;span style=&quot;font-weight: normal&quot;&gt;,&amp;nbsp;&lt;/span&gt;&lt;font color=&quot;#5ba5e3&quot; style=&quot;font-weight: normal&quot;&gt;&lt;u&gt;BasicObject&lt;/u&gt;&lt;/font&gt;&lt;span style=&quot;font-weight: normal&quot;&gt;]&lt;/span&gt;&lt;/h1&gt;&lt;p&gt;&lt;/p&gt;" style="text;html=1;strokeColor=none;fillColor=#1E1E1E;spacing=5;spacingTop=-20;whiteSpace=wrap;overflow=hidden;rounded=0;labelBackgroundColor=none;fontColor=#FFFFFF;fontStyle=0;fontSize=12;" parent="1" vertex="1">
                    <mxGeometry x="150" y="570" width="400" height="50" as="geometry"/>
                </mxCell>
                <mxCell id="70" value="&lt;span style=&quot;color: rgb(30 , 30 , 30) ; font-size: 12px ; text-align: left&quot;&gt;類似由&amp;nbsp;&lt;/span&gt;&lt;span style=&quot;color: rgb(30 , 30 , 30) ; text-align: left&quot;&gt;Movable&amp;nbsp;&lt;/span&gt;&lt;span style=&quot;color: rgb(30 , 30 , 30) ; font-size: 12px ; text-align: left&quot;&gt;去繼承 Car&lt;/span&gt;" style="whiteSpace=wrap;html=1;fillColor=#ffe6cc;strokeColor=#d79b00;fontSize=12;" parent="1" vertex="1">
                    <mxGeometry x="60" y="400" width="110" height="42" as="geometry"/>
                </mxCell>
                <mxCell id="77" style="edgeStyle=none;html=1;entryX=0.095;entryY=1.01;entryDx=0;entryDy=0;entryPerimeter=0;fontColor=#C586C0;" parent="1" source="71" target="64" edge="1">
                    <mxGeometry relative="1" as="geometry"/>
                </mxCell>
                <mxCell id="71" value="Movable 繼承鏈下方。" style="text;html=1;align=center;verticalAlign=middle;resizable=0;points=[];autosize=1;strokeColor=#d79b00;fillColor=#ffe6cc;fontSize=12;" parent="1" vertex="1">
                    <mxGeometry x="118" y="650" width="140" height="20" as="geometry"/>
                </mxCell>
                <mxCell id="72" value="Movable 被放在鏈最下面，所以&lt;br style=&quot;font-size: 11px&quot;&gt;會複寫 drive。" style="text;html=1;align=center;verticalAlign=middle;resizable=0;points=[];autosize=1;strokeColor=#d79b00;fillColor=#ffe6cc;fontSize=11;" parent="1" vertex="1">
                    <mxGeometry x="-90" y="640" width="170" height="30" as="geometry"/>
                </mxCell>
                <mxCell id="78" value="&lt;meta charset=&quot;utf-8&quot;&gt;&lt;span style=&quot;color: rgb(0, 0, 0); font-family: helvetica; font-size: 12px; font-style: normal; font-weight: 400; letter-spacing: normal; text-align: center; text-indent: 0px; text-transform: none; word-spacing: 0px; background-color: rgb(248, 249, 250); display: inline; float: none;&quot;&gt;github@harryuan65&lt;/span&gt;" style="text;whiteSpace=wrap;html=1;" parent="1" vertex="1">
                    <mxGeometry x="433" y="24" width="130" height="30" as="geometry"/>
                </mxCell>
            </root>
        </mxGraphModel>
    </diagram>
</mxfile>